<?xml version="1.0" encoding="utf-8"?>
<!-- Generator: Adobe Illustrator 17.0.0, SVG Export Plug-In . SVG Version: 6.00 Build 0)  -->
<!DOCTYPE svg PUBLIC "-//W3C//DTD SVG 1.1//EN" "http://www.w3.org/Graphics/SVG/1.1/DTD/svg11.dtd">
<svg version="1.1" id="Ebene_1" xmlns="http://www.w3.org/2000/svg" xmlns:xlink="http://www.w3.org/1999/xlink" x="0px" y="0px"
	 width="283.465px" height="283.465px" viewBox="0 0 283.465 283.465" enable-background="new 0 0 283.465 283.465"
	 xml:space="preserve">
<g>
	<path fill="#FFFFFF" d="M150.449,237.408c2.026-0.23,3.048-0.986,3.763-2.796c4.315-10.854,6.702-21.524,7.301-32.622
		c0.132-2.401-0.297-3.13-0.487-3.323c-0.065-0.07-0.269-0.286-1.135-0.286c-0.622,0-1.457,0.112-2.603,0.362
		c-9.762,2.087-19.812,3.149-29.868,3.149c-5.629,0-11.401-0.331-17.147-0.981c-27.707-3.155-49.914-12.908-67.888-29.828
		c-6.043-5.691-10.93-12.366-15.654-18.823c-0.098-0.139-0.193-0.266-0.291-0.399c0.168,7.572,1.681,15.613,4.668,24.855
		c4.662,14.448,9.759,25.77,19.492,34.046c22.039,18.736,48.023,27.842,79.446,27.842
		C136.566,238.604,143.425,238.203,150.449,237.408z"/>
	<path fill="#FFFFFF" d="M136.423,245.37c-14.012,0-26.231-1.224-38.45-3.863c-12.294-2.648-24.037-7.26-35.084-13.757
		c15.99,12.74,40.887,25.432,64.521,29.61c2.076,0.235,3.9,0.485,5.455,0.7c2.407,0.333,4.144,0.572,5.393,0.572
		c2.283,0,2.715-0.572,5.898-5.766c1.065-1.729,2.382-3.881,4.135-6.534c0.185-0.275,0.487-0.759,0.824-1.297
		c-3.455,0.123-8.4,0.302-9.156,0.311C138.78,245.362,137.597,245.37,136.423,245.37z"/>
	<path fill="#FFFFFF" d="M50.099,168.439c20.557,17.583,46.174,26.128,78.314,26.128c2.32,0,4.721-0.045,7.139-0.129
		c4.567-0.168,9.243-0.852,13.763-1.513c3.398-0.493,6.923-1.012,10.42-1.311c1.185-0.104,1.415-0.37,1.415-0.375
		c0.087-0.106,0.16-0.527,0-1.883c-1.967-16.209-8.047-30.691-18.08-43.047c-0.967-1.191-1.746-1.426-2.751-1.426
		c-0.44,0-0.955,0.052-1.636,0.154c-5.015,0.782-10.005,1.181-14.836,1.181c-22.647,0-43.636-8.763-62.391-26.047
		c-8.747-8.061-16.08-18.147-23.527-32.41c-5.696,11.343-9.294,23.122-11.258,36.765c-0.087,0.625-0.188,1.243-0.286,1.866
		c-0.588,3.645-1.146,7.096,0.513,10.394C34.095,151.11,41.251,160.868,50.099,168.439z"/>
	<path fill="#FFFFFF" d="M44.282,83.932c1.519,3.333,2.964,6.523,4.979,9.421c1.432-2.623,2.746-5.097,4.004-7.443
		C64.45,64.97,70.502,53.646,101.476,30.638C75.921,40.738,56.907,56.315,43.515,78.063c-0.126,0.205-0.266,0.413-0.403,0.618
		c-0.689,1.038-0.715,1.202-0.532,1.585C43.167,81.473,43.725,82.699,44.282,83.932z"/>
	<path fill="#FFFFFF" d="M55.375,98.675c-0.869,2.019-0.485,3.624,1.468,6.113c6.324,8.072,14.303,15.121,25.116,22.186
		c0.95,0.619,1.42,0.778,1.611,0.818c0.188-0.24,0.474-0.853,0.844-1.839l0.387-1.049c2.188-5.884,4.449-11.967,7.296-17.698
		c13.664-27.59,29.865-46.213,50.982-58.605c16.287-9.554,32.246-14.34,48.735-14.606c-5.102-2.842-10.471-4.595-15.27-5.961
		c-9.238-2.617-19.988-5.413-30.677-5.413c-6.259,0-11.939,0.936-17.357,2.858C95.402,37.217,71.477,61.157,55.375,98.675z"/>
	<path fill="#FFFFFF" d="M90.695,130.267c-0.277,0.808-0.21,1.069-0.21,1.069c0.143,0.189,1.059,0.573,1.6,0.802
		c10.899,4.585,22.076,6.907,33.218,6.907c3.615,0,7.304-0.241,10.961-0.722c3.068-0.403,4.55-1.554,5.668-4.406
		c11.566-29.369,33.625-47.589,67.44-55.692c8.419-2.019,16.917-2.279,23.378-2.279c2.835,0,5.749,0.056,8.613,0.122
		c-9.002-13.244-19.988-24.251-32.636-32.727c-1.32-0.874-2.438-1.319-3.629-1.416c-3.317-0.276-6.621-0.419-9.806-0.419
		c-17.405,0-33.258,4.212-47.119,12.514C121.806,69.806,103.003,94.748,90.695,130.267z"/>
	<path fill="#FFFFFF" d="M178.496,100.647c-0.521-0.608-0.885-0.823-1.054-0.823c-0.179,0-0.588,0.137-1.468,0.797
		c-12.765,9.56-22.152,21.951-27.895,36.827c-0.723,1.851-0.518,3.134,0.745,4.745c23.093,29.604,26.256,63.401,9.406,100.453
		c-1.891,4.155-4.155,8.103-6.559,12.278c-0.588,1.028-1.179,2.071-1.782,3.13c18.94-2.065,33.039-5.996,45.384-12.605
		c0.745-0.403,1.563-1.233,2.438-2.466c11.661-16.531,17.68-33.891,17.873-51.59C215.931,159.963,203.799,130.278,178.496,100.647z"
		/>
	<path fill="#FFFFFF" d="M244.655,83.972c-4.298-0.722-8.686-0.971-13.821-0.788c16.52,23.097,25.881,47.854,28.408,75.281
		c3.735-24.359-0.88-53.55-12.213-72.587C246.235,84.549,245.751,84.156,244.655,83.972z"/>
	<path fill="#FFFFFF" d="M223,85.485c-0.827-1.054-1.676-1.42-3.225-1.42c-0.311,0-0.628,0.01-0.961,0.035
		c-12.11,0.783-23.121,5.45-32.3,9.918c-1.751,0.848-2.042,1.461-2.09,1.691c-0.05,0.241,0,0.997,1.505,2.709
		c8.644,9.867,15.923,20.536,21.627,31.711c14.836,29.022,18.705,56.59,11.821,84.269c-1.945,7.828-5.528,15.068-9.38,22.67
		c2.289-1.384,4.149-2.953,5.965-4.491c0.423-0.359,0.843-0.717,1.266-1.07c25.163-20.918,35.995-41.254,35.14-65.951
		C251.332,135.701,241.45,108.761,223,85.485z"/>
</g>
</svg>
