<?xml version="1.0" encoding="utf-8"?>
<!-- Generator: Adobe Illustrator 17.0.0, SVG Export Plug-In . SVG Version: 6.00 Build 0)  -->
<!DOCTYPE svg PUBLIC "-//W3C//DTD SVG 1.1//EN" "http://www.w3.org/Graphics/SVG/1.1/DTD/svg11.dtd">
<svg version="1.1" id="Ebene_1" xmlns="http://www.w3.org/2000/svg" xmlns:xlink="http://www.w3.org/1999/xlink" x="0px" y="0px"
	 width="3968.5px" height="1984.25px" viewBox="0 0 3968.5 1984.25" enable-background="new 0 0 3968.5 1984.25"
	 xml:space="preserve">
<g>
	<path fill="#008ECF" d="M2483.153,742.593c0-185.686,68.119-355.366,180.524-485.794H26.307l1384.177,629.069
		c16.244-8.03,34.089-12.189,53.651-12.189c35.774,0,67.898,15.098,96.357,45.285c31.672-30.187,63.392-45.285,95.06-45.285
		c40.311,0,72.64,14.663,97.018,43.988c19.179,22.844,28.789,56.145,28.789,99.928v36.846l64.763,29.424
		c-3.208-13.386-4.994-27.435-4.994-42.354c0-47.196,16.421-87.077,49.286-119.637c32.896-32.561,73.26-48.83,121.123-48.83
		c46.761,0,86.079,15.887,117.878,47.706c31.793,31.772,47.679,70.965,47.679,117.547c0,4.721-0.437,12.268-1.297,22.618h-183.366
		c-2.773-9.253-4.179-17.771-4.179-25.549c0-10.761,1.942-21.343,5.819-31.694h61.444c-4.306-23.915-17.772-35.879-40.438-35.879
		c-15.093,0-27.36,6.428-36.845,19.226c-9.511,12.85-14.253,29.273-14.253,49.318c0,20.932,4.59,37.837,13.744,50.762
		c9.18,12.956,21.19,19.405,36.083,19.405c12.058,0,23.711-6.013,34.929-18.102l68.875,82.791
		c-10.734,8.392-21.878,15.304-33.379,20.886l1645.026,747.641v-646.5c-132.325,120.556-308.249,194.079-501.351,194.079
		C2816.567,1487.298,2483.153,1153.884,2483.153,742.593z M2406.017,1006.271c-8.413-4.742-16.059-7.116-22.95-7.116
		c-22.004,0-32.99,16.832-32.99,50.437v152.968h-120.966v-176.249c0-46.555,12.75-83.684,38.195-111.402
		c25.422-27.686,59.39-41.535,101.844-41.535c9.484,0,21.773,1.171,36.866,3.545V1006.271z"/>
	<path fill="#008ECF" d="M358.015,1059.307c1.733-18.764,5.766-31.31,12.136-37.66c6.349-6.375,18.05-9.563,35.059-9.563V884.67
		h-36.535c-42.024,0-74.919,11.528-98.63,34.603c-13.591,13.155-22.593,26.415-27.004,39.802
		c-4.405,13.359-7.473,36.514-9.205,69.51c-1.297,20.271-6.092,34.445-14.406,42.528c-8.287,8.082-22.13,12.109-41.535,12.109
		h-5.483v128.056h16.805c41.582,0,73.711-6.68,96.357-20.015C328.259,1165.584,352.379,1121.602,358.015,1059.307z"/>
	<path fill="#008ECF" d="M457.102,884.67v170.099c0,46.356,10.887,82.566,32.665,108.651
		c28.022,33.426,64.993,50.126,110.893,50.126c40.332,0,74.373-14.379,102.217-43.169c27.797-28.763,41.693-64.075,41.693-105.893
		V884.67H623.631v182.084c0,18.307-7.521,27.46-22.645,27.46c-15.293,0-22.95-9.154-22.95-27.46V884.67H457.102z"/>
	<path fill="#008ECF" d="M1261.291,1202.56v-184.966c0-43.783-9.61-77.083-28.783-99.928
		c-24.378-29.325-56.713-43.988-97.024-43.988c-31.668,0-63.387,15.098-95.054,45.285c-28.458-30.187-60.588-45.285-96.362-45.285
		c-34.749,0-64.253,12.672-88.631,37.995c-24.352,25.345-36.541,56.119-36.541,92.329v198.558h120.94v-173.644
		c0-23.921,6.706-35.906,20.066-35.906c7.342,0,12.446,2.579,15.355,7.751c2.904,5.179,4.359,14.458,4.359,27.824v173.974h120.934
		v-173.644c0-23.921,6.786-35.906,20.377-35.906c7.342,0,12.415,2.579,15.197,7.751c2.825,5.179,4.208,14.458,4.208,27.824v173.974
		H1261.291z"/>
	<path fill="#008ECF" d="M1375.504,911.674c-24.358,25.345-36.541,56.119-36.541,92.329v198.558h120.939v-173.644
		c0-23.921,6.707-35.906,20.067-35.906c7.32,0,12.446,2.579,15.35,7.751c2.904,5.179,4.359,14.458,4.359,27.824v173.974h120.939
		v-173.644c0-23.921,6.786-35.906,20.376-35.906c7.343,0,12.415,2.579,15.193,7.751c2.81,5.179,4.208,14.458,4.208,27.824v173.974
		h120.965V1054.44l-370.874-168.572C1397.838,892.09,1386.133,900.609,1375.504,911.674z"/>
	<path fill="#008ECF" d="M1889.931,1160.842c32.559,32.129,72.777,48.194,120.608,48.194c26.163,0,50.689-5.74,73.691-16.958
		l-238.108-108.214C1853.138,1113.11,1867.621,1138.812,1889.931,1160.842z"/>
	<path fill="#008ECF" d="M405.184,1409.731c-8.697,0-21.489,0.767-38.4,2.295v158.242c13.591-9.227,25.602-13.843,36.11-13.843
		c14.836,0,27.382,5.305,37.633,15.933c10.225,10.635,15.351,23.769,15.351,39.372c0,15.098-5.436,27.976-16.317,38.604
		c-10.892,10.635-24.126,15.939-39.755,15.939c-36.614,0-54.9-25.476-54.9-76.422v-313.758H201.274v319.141
		c0,58.619,15.351,106.376,46.099,143.222c17.645,21.243,40.111,38.148,67.399,50.694c27.255,12.546,55.225,18.816,83.91,18.816
		c57.064,0,105.211-19.2,144.373-57.6c39.167-38.4,58.75-85.649,58.75-141.719c0-54.775-19.253-101.64-57.779-140.549
		C505.469,1429.189,459.218,1409.731,405.184,1409.731z"/>
	<path fill="#008ECF" d="M852.506,1408.97c-56.837,0-104.775,19.326-143.81,57.979c-39.041,38.657-58.571,86.032-58.571,142.076
		c0,56.329,19.326,103.578,57.983,141.72c38.652,38.174,86.41,57.221,143.223,57.221c46.612,0,88.994-14.967,127.136-44.927
		l-81.799-98.322c-13.313,14.353-27.156,21.516-41.483,21.516c-17.676,0-31.929-7.672-42.79-23.049
		c-10.912-15.351-16.343-35.443-16.343-60.305c0-23.79,5.609-43.32,16.905-58.544c11.244-15.246,25.854-22.871,43.783-22.871
		c26.872,0,42.863,14.233,48.01,42.659h-72.976c-4.611,12.268-6.911,24.835-6.911,37.612c0,9.232,1.66,19.352,5,30.37h217.731
		c1.019-12.315,1.528-21.269,1.528-26.903c0-55.305-18.869-101.814-56.628-139.578
		C954.703,1427.833,908.068,1408.97,852.506,1408.97z"/>
	<path fill="#008ECF" d="M1294.828,1409.731c-55.562,0-102.737,19.332-141.52,57.984c-38.784,38.657-58.161,85.779-58.161,141.31
		c0,57.117,19.199,104.596,57.604,142.487c38.401,37.89,86.384,56.864,143.989,56.864c9.737,0,20.472-1.051,32.277-3.115v-148.605
		c-10.755,6.68-22.414,9.999-34.955,9.999c-15.377,0-28.023-5.125-38.021-15.377c-9.968-10.224-14.989-23.28-14.989-39.167
		c0-15.093,5.503-28.149,16.521-39.167c11.013-11.012,24.068-16.521,39.167-16.521c16.648,0,29.883,6.045,39.776,18.055
		c9.841,12.032,14.789,28.175,14.789,48.393v177.415h143.605v-187.792c0-62.726-17.849-112.196-53.571-148.401
		C1405.637,1427.833,1356.786,1409.731,1294.828,1409.731z"/>
	<path fill="#008ECF" d="M1764.633,1666.656c-16.622,0-30.497-5.635-41.662-16.909c-11.123-11.271-16.705-25.214-16.705-41.84
		c0-16.395,5.257-29.96,15.734-40.721c10.529-10.761,23.942-16.117,40.338-16.117c19.199,0,35.086,8.187,47.605,24.557l145.57-5.357
		c-8.975-46.865-31.772-85.391-68.36-115.609c-36.62-30.187-78.864-45.285-126.728-45.285c-54.795,0-101.786,19.175-140.932,57.574
		c-39.187,38.405-58.77,84.635-58.77,138.637c0,56.839,19.378,104.848,58.182,144.015c38.789,39.167,86.343,58.777,142.666,58.777
		c53.267,0,98.426-17.824,135.554-53.399c37.119-35.569,57.746-81.032,61.832-136.336l-142.466,5.383
		C1806.246,1652.425,1788.958,1666.656,1764.633,1666.656z"/>
	<path fill="#008ECF" d="M2244.31,1409.731c-24.352,0-48.652,8.849-72.977,26.495v-160.132h-143.61v524.195h143.61v-208.142
		c0-23.79,8.083-35.722,24.221-35.722c9.967,0,16.679,2.831,20.145,8.44c3.445,5.635,5.179,16.652,5.179,33.048v202.376h143.632
		v-242.719c0-45.31-10.813-81.263-32.46-107.905C2310.396,1423.044,2281.176,1409.731,2244.31,1409.731z"/>
	<g>
		<path fill="#008ECF" d="M3280.919,1318.983c12.085-1.401,18.177-5.913,22.461-16.7c25.781-64.794,40.006-128.512,43.604-194.809
			c0.762-14.331-1.785-18.638-2.904-19.788c-0.357-0.431-1.607-1.76-6.759-1.76c-3.724,0-8.724,0.714-15.582,2.195
			c-58.261,12.441-118.287,18.791-178.361,18.791c-33.605,0-68.03-1.964-102.349-5.866
			c-165.436-18.817-298.028-77.078-405.372-178.103c-36.084-33.967-65.257-73.843-93.479-112.4
			c-0.562-0.814-1.177-1.581-1.733-2.368c1.019,45.206,10.04,93.222,27.865,148.374c27.823,86.289,58.267,153.909,116.401,203.327
			c131.601,111.859,286.755,166.245,474.399,166.245C3197.997,1326.121,3238.975,1323.7,3280.919,1318.983z"/>
		<path fill="#008ECF" d="M3197.13,1366.511c-83.638,0-156.613-7.316-229.538-23.05c-73.433-15.833-143.553-43.347-209.492-82.156
			c95.437,76.086,244.147,151.845,385.231,176.806c12.389,1.402,23.302,2.909,32.581,4.159c14.384,1.985,24.762,3.414,32.182,3.414
			c13.697,0,16.191-3.414,35.265-34.425c6.35-10.324,14.206-23.176,24.683-38.983c1.119-1.66,2.904-4.542,4.894-7.751
			c-20.602,0.741-50.126,1.78-54.669,1.86C3211.23,1366.484,3204.193,1366.511,3197.13,1366.511z"/>
		<path fill="#008ECF" d="M2681.705,907.184c122.726,104.953,275.715,155.972,467.615,155.972c13.874,0,28.227-0.252,42.664-0.736
			c27.229-1.044,55.174-5.099,82.156-9.027c20.318-2.983,41.304-6.071,62.21-7.883c7.064-0.583,8.445-2.19,8.445-2.19
			c0.556-0.641,0.993-3.135,0-11.244c-11.732-96.793-48.016-183.286-107.937-257.025c-5.813-7.143-10.403-8.571-16.448-8.571
			c-2.625,0-5.708,0.31-9.741,0.945c-29.956,4.689-59.764,7.037-88.605,7.037c-135.219,0-260.517-52.321-372.559-155.537
			c-52.191-48.094-96-108.32-140.439-193.459c-34.019,67.698-55.509,137.996-67.241,219.465c-0.515,3.722-1.146,7.42-1.733,11.169
			c-3.446,21.773-6.807,42.376,3.108,62.063C2586.137,803.659,2628.874,861.952,2681.705,907.184z"/>
		<path fill="#008ECF" d="M2646.981,402.573c9.075,19.94,17.693,38.961,29.756,56.276c8.487-15.708,16.395-30.449,23.89-44.444
			c32.765-61.355,58.188-108.882,97.397-157.606c40.7-50.584,96.257-102.454,190.455-172.447
			c-105.032,41.519-191.573,98.562-261.394,172.447c-31.588,33.426-59.764,70.292-84.672,110.741
			c-0.787,1.223-1.58,2.473-2.421,3.697c-4.133,6.17-4.259,7.163-3.161,9.458C2640.323,387.91,2643.637,395.251,2646.981,402.573z"
			/>
		<path fill="#008ECF" d="M2854.735,256.798c-55.247,64.92-102.338,142.523-141.51,233.822c-5.204,12.058-2.909,21.621,8.77,36.488
			c37.76,48.162,85.392,90.285,149.981,132.487c5.655,3.698,8.466,4.643,9.562,4.895c1.171-1.454,2.857-5.125,5.021-11.012
			l2.348-6.25c13.082-35.139,26.568-71.469,43.573-105.688c60.482-122.158,129.326-214.802,212.275-284.742
			c28.92-24.383,59.526-46.063,92.129-65.199c97.302-57.017,192.535-85.576,291.012-87.182
			c-30.449-16.953-62.499-27.46-91.157-35.596c-55.152-15.603-119.358-32.302-183.208-32.302c-37.354,0-71.243,5.556-103.624,17.084
			C3032.797,95.101,2935.059,162.416,2854.735,256.798z"/>
		<path fill="#008ECF" d="M3823.752,355.628c-53.75-79.068-119.332-144.803-194.856-195.365c-7.883-5.278-14.563-7.883-21.678-8.492
			c-19.835-1.633-39.493-2.5-58.566-2.5c-103.882,0-198.553,25.139-281.297,74.71c-17.12,10.245-33.605,21.269-49.665,32.818l0,0
			c-131.663,94.702-228.072,233.434-293.57,422.428c-1.659,4.822-1.276,6.376-1.276,6.402c0.866,1.124,6.349,3.419,9.562,4.795
			c65.073,27.361,131.827,41.257,198.354,41.257c21.647,0,43.625-1.455,65.456-4.338c18.277-2.421,27.177-9.254,33.858-26.311
			c69.022-175.351,200.753-284.128,402.719-332.553c33.196-7.968,66.501-11.287,96.462-12.646l0,0
			c15.397-0.704,29.971-0.92,43.068-0.92C3789.255,354.914,3806.669,355.245,3823.752,355.628z"/>
		<path fill="#008ECF" d="M3448.341,502.374c-3.061-3.623-5.225-4.921-6.243-4.921c-1.104,0-3.498,0.866-8.75,4.795
			c-76.243,57.063-132.288,131.059-166.634,219.895c-4.254,11.018-3.035,18.691,4.516,28.327
			c137.866,176.705,156.761,378.525,56.146,599.776c-11.296,24.808-24.809,48.394-39.162,73.354
			c-3.497,6.123-7.037,12.32-10.661,18.643c113.089-12.315,197.304-35.8,270.994-75.245c4.465-2.399,9.358-7.374,14.563-14.741
			c69.684-98.705,105.563-202.381,106.735-308.071C3671.939,856.543,3599.445,679.332,3448.341,502.374z"/>
		<path fill="#008ECF" d="M3857.589,414.173c-4.716-7.93-7.599-10.251-14.153-11.322c-25.675-4.359-51.886-5.814-82.587-4.716
			c98.656,137.87,154.571,285.735,169.669,449.486C3952.827,702.151,3925.287,527.844,3857.589,414.173z"/>
		<path fill="#008ECF" d="M3729.255,431.661c-4.963-6.644-9.932-13.287-15.12-19.836c-4.946-6.243-9.994-8.465-19.279-8.465
			c-1.885,0-3.77,0.105-5.735,0.205c-72.34,4.695-138.075,32.539-192.844,59.233c-10.456,5.073-12.242,8.723-12.468,10.125
			c-0.357,1.428,0,5.913,8.948,16.164c51.634,58.903,95.08,122.625,129.147,189.326c88.585,173.314,111.686,337.905,70.556,503.163
			c-11.601,46.812-32.969,90.007-55.993,135.344c13.665-8.213,24.782-17.593,35.596-26.799c2.547-2.142,5.073-4.258,7.599-6.349
			c17.745-14.762,34.204-29.466,49.592-44.182c114.863-109.812,164.753-219.607,160.231-349.642
			C3883.59,720.111,3829.645,566.039,3729.255,431.661z"/>
	</g>
</g>
</svg>
